<svg version="1.2" xmlns="http://www.w3.org/2000/svg" viewBox="0 0 1500 508" width="1500" height="508">
	<title>thermorossi-estufas-svg</title>
	<style>
		.s0 { fill: #464848 } 
	</style>
	<path id="Path 0" fill-rule="evenodd" class="s0" d="m1434 28c8.1 0 10.9 0.4 19.5 3.2 5.6 1.8 12.7 5 16 7.2 3.3 2.2 8.2 6 10.8 8.5 2.7 2.5 6.6 7.1 8.6 10.1 2 3 5.4 10 11.4 25.5l-0.6 12.5c-0.3 6.9-1.2 14.5-2 17-0.8 2.5-2.7 7.2-4.2 10.5-1.4 3.3-4.5 8.3-6.8 11.1-2.3 2.8-6.7 7.2-9.7 9.8-3 2.6-7.9 6-10.8 7.6-2.8 1.7-8 4-11.5 5.2-5.2 1.9-8.3 2.2-19.7 2.1-12 0-14.4-0.3-21-2.7-4.1-1.4-10-4.1-13-5.9-3-1.7-8.6-6.4-12.5-10.2-5.2-5.2-8.3-9.3-11.7-16-2.6-5.1-5.1-11.6-5.7-15-0.6-3.3-1.1-10.7-1.1-16.5 0-8.8 0.5-11.8 2.8-18.5 1.5-4.4 3.9-10 5.4-12.5 1.4-2.5 4.5-6.9 6.9-9.7 2.4-2.9 6.9-7.1 9.9-9.4 3-2.3 7.3-5 9.5-6.2 2.2-1.1 7.6-3.3 12-4.8 6.4-2.2 9.9-2.8 17.5-2.9zm-29 46h-12v12l11.5 0.5 0.5 38.5h22l0.5-38.5h5l0.5 38.5h22c0-26 0.3-28 2.3-31.9 1.2-2.4 4-5.8 6.2-7.5q4-3 8.8-3.6l4.7-0.5c0-12.3-0.4-14.9-1.5-16-0.8-0.8-2.8-1.5-4.5-1.5-1.7 0-4.1 0.5-5.5 1-1.4 0.5-4 2.3-5.8 4-1.7 1.6-3.5 2.6-4 2.2-0.4-0.4-0.7-2.2-0.7-3.9v-3.3h-22c-0.5 9.1-0.7 9.5-3.3 9.8-2.6 0.2-2.7 0-2.7-4.8v-5h-22zm-1405-10h112v18.5c0 10.2-0.2 19.2-0.5 20-0.4 1.2-3.1 1.5-30.5 1.5v157h-51v-157h-30zm312.5 248.7c5.5 0.3 14.1 1.6 19 2.8 4.9 1.2 11.5 3.5 14.5 5 3 1.5 8 4.5 11 6.5 3 2 8.2 6.6 11.5 10.1 3.3 3.5 7.7 9.1 9.7 12.4 2 3.3 4.8 9 6.2 12.8 1.4 3.7 2.6 7.4 2.6 8.2 0 1.3-3.1 1.5-44.5 1.5l-2-3.6c-1.1-2-4.1-5.6-6.8-8-2.6-2.4-7.3-5.6-10.5-7.1-5.1-2.5-6.8-2.8-15.7-2.7-8.1 0-11.1 0.5-16 2.4-3.3 1.3-7.8 3.8-10 5.5-2.2 1.7-5.9 6-8.3 9.5-2.4 3.6-5.1 9-6 12-1.3 4-1.7 9.1-1.6 19 0 11.4 0.4 14.4 2.3 19.5 1.2 3.3 3.6 8.2 5.4 10.9 1.8 2.8 5.2 6.6 7.7 8.6 2.5 2 7.2 4.7 10.5 6 4.8 1.9 8 2.3 16 2.4 9.3 0.1 10.5-0.1 16.5-3 3.6-1.8 7.9-4.5 9.5-6 1.7-1.6 4.5-5 9.5-12.4h44l-0.6 3.8c-0.3 2-1.9 6.6-3.6 10.2-1.6 3.6-4.9 9.2-7.2 12.5-2.4 3.3-6.8 8.3-9.7 11.1-3 2.8-7.9 6.7-10.9 8.6-3 2-8.9 5-13 6.6-4.1 1.7-10.9 3.7-15 4.6-4.1 0.8-10.4 1.8-14 2.1-4.1 0.4-10.3 0.1-17-0.9-5.8-0.9-13.2-2.5-16.5-3.5-3.3-1-8.5-3.1-11.5-4.6-3-1.5-8.2-4.7-11.5-7-3.3-2.3-8.3-6.7-11.1-9.6-2.8-3-7-8.3-9.3-11.9-2.3-3.6-5.5-10-7.1-14.2-1.7-4.3-3.7-11.7-4.5-16.5-0.8-4.9-1.5-13.3-1.5-18.8 0-5.5 0.5-12.7 1-16 0.6-3.3 2-8.9 3.2-12.5 1.1-3.6 3.8-9.9 5.9-14 2.2-4.1 6.2-10.2 9-13.5 2.9-3.3 8.2-8.4 11.8-11.3 3.6-2.9 9.7-6.8 13.6-8.7 3.9-1.8 10.1-4.3 14-5.4 3.9-1.2 10.1-2.5 14-3 3.9-0.5 11.5-0.7 17-0.4zm1086-0.6c6.3 0 13.3 0.6 19 1.8 5 1 11.7 3.1 15 4.6 3.3 1.4 8 4.3 10.5 6.3 2.4 2 5.7 5.1 7.2 6.7 1.5 1.6 4.1 5.5 5.7 8.5 1.6 3 3.7 8.4 4.5 12 0.9 3.6 1.6 7.5 1.6 11l-44.3-0.5-1.3-4.5c-0.8-2.5-2.4-5.6-3.7-6.8-1.2-1.3-3.5-3.1-5.2-4-1.8-0.9-5.6-1.6-9.5-1.6-4.3 0-7.6 0.5-9.8 1.7-1.7 0.9-4 2.9-4.9 4.5-0.9 1.5-1.9 4.5-2.1 6.7-0.3 2.4 0.2 5.2 1 7 0.9 1.6 3.1 4.3 4.9 5.9 1.9 1.6 5.9 4 8.9 5.4 3 1.3 12 4.6 20 7.4 8 2.7 17.9 6.7 22 8.8 4.1 2.2 9.7 5.9 12.5 8.3 2.8 2.5 6.4 7 8.1 10.3 1.8 3.2 3.7 8.3 4.3 11.2 0.6 2.8 1.1 8 1.1 11.5 0 3.4-0.8 9.1-1.9 12.7-1.1 3.6-3.7 9.2-5.9 12.5-2.1 3.3-6.1 8-8.8 10.4-2.7 2.4-8.1 5.9-11.9 7.7-3.8 1.9-11 4.3-16 5.4-5 1.1-12.6 2-17 2-4.4 0-12-0.9-17-1.9-5-1-12.4-3.2-16.5-4.9-4.1-1.8-10.2-5.3-13.5-7.9-3.3-2.7-7.8-7.5-10-10.8-2.2-3.3-4.8-8.5-5.8-11.5-1-3-2.1-7.9-3.2-16.1l43.6 0.6 1.7 5.1c0.9 2.8 2.6 6.1 3.7 7.4 1.1 1.2 3.8 3.1 6 4.3 2.8 1.5 5.9 2.1 10.5 2.1 4.6 0 7.7-0.6 10.5-2.1 2.2-1.1 4.8-3.1 5.8-4.4 1-1.3 2.1-4.2 2.4-6.4 0.4-2.9 0-5.2-1.5-8.5-1.4-3.1-3.5-5.5-6.9-7.7-2.8-1.9-12.9-5.9-24.3-9.8-10.7-3.6-22.6-8.3-26.3-10.3-3.8-2-9.1-5.9-11.9-8.7-2.7-2.7-6.3-7.7-7.9-11-1.5-3.3-3.3-9.1-3.9-13-0.6-3.9-0.8-9.7-0.4-13 0.4-3.3 1.5-8.5 2.6-11.5 1.1-3 2.9-6.9 4-8.5 1.2-1.6 4-4.9 6.2-7.3 2.3-2.4 6.6-5.8 9.6-7.7 3-1.8 8.3-4.3 11.7-5.4 3.5-1.2 8.7-2.5 11.5-3 2.9-0.5 9.8-0.9 15.3-1zm-700.5-251.6c6.9 0.3 15 1.1 18 2 3 0.8 8.4 2.9 11.9 4.7 3.5 1.8 8.4 5.3 11 7.8 2.5 2.5 5.8 6.3 7.3 8.5 1.5 2.2 3.8 6.7 5 10 1.9 5.3 2.3 8.8 2.9 29.5 0.4 12.9 0.5 39.9 0.2 60-0.2 20.1-0.9 38.8-1.4 41.5-0.5 2.8-2.3 7.7-3.9 11-1.5 3.3-5 8.4-7.7 11.4-2.6 3-6.6 6.6-8.8 8.2-2.2 1.5-8.2 4.1-13.3 5.8-8.4 2.8-10.3 3.1-22.5 3.1-8.1 0-15.6-0.6-19.5-1.5-3.4-0.8-8.6-2.6-11.5-4-2.8-1.4-7.3-4.2-9.9-6.3-2.6-2-6.6-6.2-8.8-9.2-2.3-3-5.1-8-6.2-11-1.4-3.8-2.3-9.4-2.9-18.5-0.4-7.1-0.8-29.4-0.8-49.5 0-20.1 0.4-43.2 0.8-51.5 0.7-14.7 0.8-15.2 4.5-23 2.7-5.7 5.4-9.6 9.5-13.5 3.5-3.4 8.8-7 13.7-9.4 4.3-2.1 10.6-4.5 13.9-5.2 4.1-1 9.9-1.2 18.5-0.9zm-9.3 56.8c-0.4 10.6-0.6 39-0.5 63.2 0.2 32.9 0.6 44.6 1.5 46.3 0.7 1.2 2.3 2.7 3.5 3.3 1.3 0.6 3.3 0.8 4.5 0.5 1.3-0.3 2.9-1.6 3.5-2.8 1-1.8 1.2-16.5 1-65.8-0.2-54.1-0.5-63.8-1.7-65.7-1-1.5-2.5-2.3-4.4-2.3-1.6 0-3.6 0.9-4.7 2.1-1.7 1.8-2 4.5-2.7 21.2zm264.8-56.7c6 0.3 13 0.9 15.5 1.5 2.5 0.6 7.6 2.5 11.5 4.4 3.9 1.8 9.3 5.5 12.1 8.2 2.8 2.6 6.5 7.1 8.3 9.8 1.7 2.8 4.2 8.2 5.4 12 2.2 6.9 2.2 7.9 2.2 126l-2.3 6.5c-1.3 3.6-3.4 8.3-4.7 10.5-1.3 2.2-4.5 6.3-7.2 9-2.7 2.8-8 6.7-11.8 8.7-3.9 2-10.1 4.4-14 5.3-4.4 1.1-11.2 1.7-18.5 1.6-8 0-13.8-0.6-19-1.9-4.1-1.1-10-3.2-13-4.7-3.1-1.5-8.4-5.7-12-9.4-5.2-5.2-7.3-8.3-9.9-14.6-3.1-7.3-3.5-9.3-4.3-23.5-0.6-8.5-0.8-36-0.1-106.5l2.7-8c1.5-4.4 4.4-10.4 6.4-13.4 2-2.9 6.4-7.4 9.7-9.8 3.3-2.5 7.6-5.3 9.5-6.3 1.9-0.9 5.3-2.3 7.5-3 2.2-0.7 6.5-1.7 9.5-2.1 3-0.4 10.5-0.6 16.5-0.3zm-9.3 36.9c-0.9 1.9-1.2 17.1-1.2 65.3-0.1 58.8 0 62.8 1.7 64.9 1 1.2 2.9 2.5 4.3 2.8 1.7 0.4 3.4 0 5.2-1.4l2.8-2.1v-128.5c-4.3-4.2-6-5.4-6.5-5.4-0.5 0-1.9 0.5-3 1-1.1 0.5-2.6 2-3.3 3.4zm123.3-37.4c2.2 0 9 0.4 15 0.9 6 0.5 13.7 1.9 17 3 3.3 1.2 8 3.3 10.5 4.8 2.5 1.4 6 4 7.9 5.7 1.8 1.6 4.4 4.8 5.6 7 1.3 2.2 2.8 6.7 3.4 10 0.7 3.3 1.5 12 2.6 32.5h-48.5l-0.3-12.9c-0.2-11.3-0.4-13.1-2.2-15-1.1-1.2-3.2-2.2-4.8-2.1-1.5 0-3.9 1.1-5.5 2.4-2.6 2.4-2.7 2.7-2.7 12.8 0 9.5 0.2 10.8 2.6 14.4 1.8 2.8 7.9 7.5 21.9 16.9 10.7 7.2 22.5 15.9 26.3 19.5 3.8 3.6 8 8.3 9.2 10.5 1.3 2.2 3.3 7.2 4.5 11 1.9 6.1 2.1 9.6 2.3 27 0.1 16.1-0.2 21.1-1.6 25.5-0.9 3-2.9 7.4-4.4 9.7-1.5 2.3-5.1 5.9-7.8 8.1-2.8 2.2-7.3 5-10 6.2-2.8 1.2-8.4 3-12.5 4.1-5.6 1.4-10.9 1.9-20.5 1.9-8.4 0-15.1-0.6-19-1.6-3.3-0.8-9.2-3-13-4.9-4.1-1.9-9.2-5.4-12.3-8.4-2.9-2.9-6.2-7.4-7.5-10.3-1.3-2.9-2.9-7.3-3.5-9.8-0.6-2.5-1.4-10.6-1.7-18-0.3-7.4-0.8-15.2-1.5-21h49l0.3 17.8c0.2 13.6 0.6 18.2 1.7 19.9 0.8 1.3 2.8 2.5 4.5 2.9 1.7 0.3 4.1 0.1 5.5-0.5 1.4-0.6 3.1-2.1 3.9-3.4 0.8-1.2 1.6-4.9 1.9-8.2 0.2-3.3 0.2-8.9-0.2-12.5-0.4-4.6-1.4-7.7-3.4-10.7-1.5-2.4-5.2-6.2-8.2-8.6-3-2.3-9.8-7.2-15-10.7-5.2-3.5-13.1-9.2-17.5-12.5-4.4-3.4-9.6-8.1-11.6-10.6-2-2.4-4.6-6.2-5.7-8.4-1.1-2.2-2.7-6.7-3.6-10-1.1-4.1-1.6-10.5-1.6-20.5 0-9.4 0.6-16.7 1.5-20.7 0.8-3.5 2.3-8 3.4-10 1-2.1 3.7-5.7 6-8 2.2-2.4 6-5.4 8.3-6.8 2.4-1.3 7-3.4 10.3-4.6 3.3-1.1 8.5-2.4 11.5-2.9 3-0.4 7.3-0.8 9.5-0.9zm128.5 0.4c8.5 0.3 14.8 1.1 19.7 2.5 4 1.1 10 3.4 13.3 5 3.3 1.7 7.5 4.3 9.2 5.9 1.8 1.5 4.5 5 6 7.7 1.5 2.7 3.1 7.8 3.7 11.4 0.6 3.6 1.4 11.6 1.8 17.8 0.7 9.5 0.6 11.4-0.7 12.2-0.8 0.5-11.7 1-47 1l-0.3-12.9c-0.2-11.3-0.4-13.1-2.2-15-1.1-1.2-3-2.2-4.3-2.1-1.2 0-3.1 0.5-4.2 1-1.1 0.6-2.7 2.4-3.5 4-0.9 1.9-1.5 5.8-1.5 10.5 0 4.9 0.6 9 1.7 11.7 1.2 2.8 3.6 5.5 7.3 8.3 3 2.3 12.5 8.8 21 14.6 8.5 5.7 18.5 13.3 22.1 16.9 4.5 4.4 7.6 8.6 9.7 13 1.6 3.6 3.6 9.2 4.3 12.5 0.8 3.6 1.3 13 1.4 23.5 0 15.2-0.3 18.4-2.2 24.5-1.5 5-3.4 8.4-6.6 12-2.4 2.8-6.6 6.4-9.3 8.2-2.7 1.7-8.5 4.4-12.9 5.9-6.8 2.3-10.1 2.8-22 3.1-10.4 0.4-15.9 0.1-21.5-1.1-4.1-0.9-10.7-3.1-14.5-4.9-3.8-1.8-9-5.1-11.4-7.3-2.4-2.1-5.5-5.9-6.9-8.4-1.5-2.5-3.5-7.4-4.5-11-1.3-4.6-2.1-11.6-3.2-41h47l0.8 15.7c0.4 8.7 1.1 17.2 1.6 18.8 0.4 1.7 2 3.9 3.4 5 2.2 1.7 3.2 1.8 5.8 1 1.8-0.5 4.1-2.1 5.1-3.5 1.4-1.8 2.1-4.7 2.5-10 0.3-4.1 0-10.2-0.6-13.5-0.6-3.3-2.2-7.5-3.4-9.3-1.2-1.8-6.5-6.4-11.7-10.2-5.2-3.8-14.9-10.7-21.4-15.2-6.5-4.6-14.2-10.8-17-13.8-2.8-3-6.1-7.5-7.3-10-1.2-2.5-2.9-7.2-3.8-10.5-1-4.1-1.5-10.8-1.5-21.5 0-12.6 0.3-16.7 1.9-22 1.1-3.6 3.5-8.7 5.3-11.5 1.8-2.7 5.5-6.6 8.3-8.7 2.7-2.1 8.2-4.9 12-6.4 3.8-1.4 9.5-2.9 12.5-3.4 3-0.5 11.1-0.7 18-0.5zm-1029 3.5v70h15v-70h51v70.8c0 38.9-0.3 83.2-1.5 126.2h-49.5v-83h-15v29.3c0 16-0.3 34.7-1.5 53.7l-50-0.5-0.4-97.4c-0.4-83.3-0.2-97.6 1-98.3 0.8-0.4 12.5-0.8 50.9-0.8zm79 0h85v40h-34v36l31.5 0.5 0.5 37.5h-32v43h37v40h-88zm95 0h16.2c9 0 27.5 0.5 41.3 1 17.4 0.7 26.5 1.5 30 2.5 2.7 0.9 6.4 2.4 8 3.5 1.6 1 4.9 3.9 7.2 6.4 2.4 2.5 5.2 6.4 6.3 8.6 1.1 2.2 2.7 7 3.6 10.8 1.2 5.1 1.5 10.8 1.2 24.2-0.3 17.1-0.4 17.6-3.3 23.5-2.5 4.9-4 6.6-8.5 9.3-3 1.8-6.7 3.2-8.3 3.2-1.5 0-2.7 0.5-2.7 1 0 0.6 2.1 1.9 4.7 3.1 2.7 1.1 6.2 3 7.8 4.3 1.6 1.2 4.6 4.7 10.3 13.1l1.7 81.3-3.5 0.7c-1.9 0.3-12.7 0.5-44.5 0l-0.7-39c-0.4-21.4-0.9-40.5-1.2-42.2-0.4-2.3-1.5-3.7-3.4-4.7-1.5-0.7-4.4-1.6-10.2-2.6v43.3c0 23.7-0.4 43.7-0.8 44.2-0.4 0.6-10 0.9-51.2 0.5zm52 77c3.9 0 6.7-0.7 8.8-1.5 2.2-0.8 4-2.4 4.5-3.7 0.4-1.3 1-7.5 1.3-13.8 0.4-7.3 0.2-13.1-0.5-15.7-0.8-3-1.9-4.7-3.9-5.7-1.5-0.8-4.3-1.7-6.3-2.1l-3.6-0.7zm75-77h66l0.4 2.2c0.3 1.3 3 19.6 6.1 40.8 3.1 21.2 5.8 38.7 6 39 0.3 0.3 0.7 0.3 0.9 0 0.2-0.3 1.4-7.5 2.5-16 1.1-8.5 3.4-25.9 5.1-38.5 1.6-12.7 3.2-24 4-27.5h66v197h-43.5l-0.9-53.8c-0.5-29.5-1.2-54.6-1.6-55.7-0.5-1.5-1-0.3-1.8 4.5-0.6 3.6-1.8 11.7-2.7 18-0.8 6.3-3.1 23.4-5.1 38-1.9 14.6-4.2 31.3-6.9 47.9l-7.5 0.7c-4.2 0.3-11.1 0.3-15.5 0-4.4-0.4-8.1-0.8-8.2-0.9-0.1-0.1-0.9-4.5-1.7-9.7-0.9-5.2-3.9-24.6-6.6-43-2.7-18.4-5.7-38.5-6.6-44.5-0.9-6.1-1.8-11.2-2-11.5-0.2-0.3-0.6 4.2-0.9 10-0.3 5.8-0.7 30.5-1 99.5l-44.5 0.5zm298 0h23.2c12.8 0 31.1 0.4 40.8 0.9 12.7 0.7 19.3 1.5 24.2 3 5.6 1.7 7.8 3.1 12.7 7.8 3.4 3.4 7 8.1 8.5 11.3 1.8 3.9 2.9 8.5 3.7 16 0.6 5.8 0.9 15.9 0.6 22.5-0.4 8.8-1 13.4-2.6 17.5-1.1 3-3.1 6.4-4.3 7.6-1.3 1.2-3.7 2.8-5.3 3.7-1.7 0.8-4.7 1.8-6.8 2.1-2 0.3-3.7 0.9-3.8 1.3 0 0.4 1.9 1.7 4.2 2.8 2.4 1.1 5.9 3.1 7.8 4.5 2 1.4 5.2 5.2 11 14.5l0.1 81.5h-46.5l-0.8-40.5c-0.5-29.1-1.1-41.2-2-43-0.7-1.4-2.9-3.2-5-4-2-0.9-4.4-1.5-5.2-1.5-0.9 0-1.8 0.8-2.2 1.7-0.3 1-0.8 21-1.3 87.3l-50.5-0.5zm51.2 56.7c-0.2 18.7-0.1 20.3 1.5 20.3 1-0.1 3.6-0.5 5.8-1 2.2-0.5 4.8-2 5.8-3.2 1.5-2 1.8-4.4 1.7-17.1 0-8.1-0.4-15.5-0.9-16.5-0.5-0.9-2.7-2.5-5-3.5-2.3-0.9-4.8-1.7-5.6-1.7-0.8 0-1.8 0.5-2.2 1.2-0.5 0.7-0.9 10.4-1.1 21.5zm496.8-56.7v70.7c0 38.9-0.4 83.3-1.5 126.3l-50-0.5-0.5-97.7c-0.5-97-0.5-97.7 1.5-98.1 1.1-0.3 12.9-0.5 50.5-0.7zm-803.7 250.5l29.8 82.5c16.5 45.4 30.1 83.3 30.4 84.2 0.4 1.7-1 1.8-43 1.8l-10-29.5h-62.9l-9.6 29.5h-21.5c-11.8 0-21.5-0.2-21.5-0.5 0-0.3 13.5-38 30.1-83.8 16.5-45.8 30.3-83.6 30.5-84 0.3-0.4 11.1-0.6 47.7-0.2zm-44 106.2c0.1 0.1 9.2 0.1 20.3 0l20-0.2c-14.9-45.4-19.7-58.5-20.2-58.5-0.6 0-5.4 13.1-10.7 29.2-5.3 16.1-9.6 29.4-9.4 29.5zm123.7-106.8l40.5 0.6 0.5 136.5 53.5 0.5 0.5 31.5h-95zm113.9 0h32.8c18 0 36.8 0.5 41.7 1 5 0.6 12.4 1.9 16.5 3 4.2 1 10.5 3.2 14 4.8 3.6 1.6 9.2 4.7 12.5 6.9 3.3 2.2 8.7 6.9 12 10.4 3.3 3.5 7.7 9.1 9.7 12.4 2.1 3.3 4.8 8.9 6.2 12.5 1.3 3.6 3.2 10.1 4.2 14.5 1 5.2 1.7 12.5 1.6 20.5 0 10-0.5 14.4-2.4 22-1.4 5.2-4.1 12.7-6 16.5-2 3.9-5.6 9.7-8.2 13-2.6 3.3-7.2 8.2-10.4 10.9-3.1 2.7-8.1 6.3-11.2 8-3 1.8-8.4 4.4-12 5.8-3.5 1.5-9.6 3.4-13.5 4.4-6 1.5-12.6 1.8-87.5 2.4zm41 133c25 0 31.4-0.5 35.5-1.5 3.3-0.9 8.7-3 11.9-4.8 3.3-1.7 7.7-5.2 9.9-7.7 2.1-2.5 5-7 6.4-10 1.5-3 3.2-9.1 4-13.5 0.9-4.8 1.2-10.5 0.8-14.5-0.3-3.6-1.3-9.1-2-12.2-0.8-3.2-2.5-7.9-3.8-10.5-1.4-2.6-4.3-6.7-6.5-9-2.3-2.4-6.3-5.5-8.9-7-2.6-1.5-7.7-3.5-11.3-4.5-4.8-1.3-10.2-1.8-21.2-1.8h-14.8zm237-133v34h-62v33l54.5 0.5 0.5 31.5h-55v37h62v33h-104l-0.1-83.8c-0.1-46.1 0.2-84.1 0.6-84.5 0.5-0.4 24-0.7 103.5-0.7zm68 0.3c34.3 0.4 41.5 0.7 47 2.2 3.6 0.9 10.1 3.4 14.5 5.5 6.2 2.9 9.4 5.2 13.9 10.2 3.3 3.5 7 8.5 8.3 11.1 1.3 2.6 3 7.3 3.8 10.5 0.9 3.1 1.5 9.3 1.5 13.7 0 4.4-0.7 10.5-1.5 13.5-0.8 3-2.7 7.9-4.2 10.9-1.5 2.9-5.5 7.9-8.8 11.1-4.1 4-8.6 7-22.4 13.5l19 32.5c10.4 17.9 18.9 32.9 18.9 33.3 0 0.4-10.3 0.7-46 0.7l-34.5-63h-9.5v63h-42l-0.1-83.8c-0.1-49.8 0.2-84.2 0.7-84.6 0.5-0.4 19.2-0.6 41.4-0.3zm0 75.7c27-0.1 32.7-0.5 35.5-1.5 2.2-0.8 4.9-2.3 5.9-3.2 1.1-1 2.7-3.6 3.8-5.8 1.1-2.5 1.8-6.3 1.8-10.2 0-4.2-0.6-7.5-1.9-10-1-2.1-2.7-4.5-3.7-5.5-1-0.9-3.5-2.4-5.6-3.2-2.9-1.2-7.5-1.6-19.8-1.6h-16zm165-76l47.5 0.5 30.2 83.5c16.7 45.9 30.3 83.9 30.3 84.3 0 0.4-9.7 0.6-43.2 0.2l-10.3-29.5h-62.5l-1.1 3.8c-0.6 2-2.9 8.8-8.9 26.2h-21.5c-16.7 0-21.4-0.3-21.1-1.2 0.2-0.7 13.5-37.7 29.6-82.3 16.1-44.5 29.7-82 30.2-83.2zm12.5 78.7l-9.5 28.3h41c-14.9-43.8-19.6-57.2-20.1-58-0.7-1.3-0.9-1.3-1.4 0-0.3 0.8-4.8 14.2-10 29.7z"/>
</svg>