<svg version="1.2" xmlns="http://www.w3.org/2000/svg" viewBox="0 0 2944 576" width="2944" height="576">
	<title>image</title>
	<style>
		.s0 { fill: #232020 } 
	</style>
	<path id="Path 0" fill-rule="evenodd" class="s0" d="m2815 56.1c8.9-0.1 17.9 0.5 23.3 1.4 4.8 0.8 12.9 2.8 17.9 4.5 5.1 1.6 13.4 5 18.3 7.5 4.9 2.6 11.9 6.7 15.5 9.3 3.6 2.5 10.7 8.6 15.8 13.6 5.1 5 11.7 12.5 14.7 16.6 2.9 4.1 7.4 11.5 10 16.5 2.5 4.9 5.9 13.2 7.5 18.2 1.7 5.1 3.7 13.2 4.5 18 0.9 4.9 1.5 14.8 1.5 22.3 0 7.7-0.6 17.4-1.5 22.5-0.9 4.9-2.9 12.9-4.5 17.7-1.7 4.9-5 12.7-7.4 17.5-2.4 4.9-7.3 12.8-10.7 17.7-3.5 4.9-10.2 12.5-14.9 17-4.7 4.4-12.3 10.6-17 13.7-4.7 3.1-11.4 7.1-15 8.9-3.6 1.8-9.4 4.3-13 5.6-3.6 1.3-10.3 3.3-15 4.4-6 1.5-13.1 2.3-24 2.7-11.7 0.4-17.9 0.1-25.5-1.1-5.5-0.9-14.7-3.3-20.5-5.2-5.8-1.9-14.1-5.4-18.5-7.7-4.4-2.3-11.6-6.9-16-10.1-4.4-3.3-10.6-8.5-13.9-11.5-3.2-3.1-9-9.9-13-15.1-3.9-5.2-9-13.1-11.3-17.5-2.2-4.4-5.4-11.8-7.1-16.5-1.6-4.7-3.8-12.1-4.8-16.5-1.5-6.4-1.9-11.8-1.8-27.5 0-18.7 0.2-20 3.2-31.5 2-7.3 5.3-16.3 8.6-23 2.9-6 8.2-15 11.7-19.9 3.5-4.9 10.2-12.5 14.9-17 4.7-4.5 11.9-10.5 16-13.3 4.1-2.7 11.2-6.9 15.8-9.2 4.5-2.2 12.1-5.4 16.9-7.1 4.9-1.6 12.4-3.6 16.8-4.4 4.4-0.8 14.5-1.5 22.5-1.5zm-58 88.9h-24v25h24v75h44v-75h11v75h44l0.5-56.5c4.5-8.5 8.3-13.6 11.4-16.8 3.1-3.2 7.9-6.9 10.6-8.3 3.9-1.9 6.6-2.5 11.8-2.4 3.7 0 7.1 0.2 7.7 0.5 0.6 0.3 1-5.5 1-16.5v-17c-4.3-1.8-8-2.5-11-2.8-3.7-0.3-7.3 0.1-11 1.3-4.4 1.4-6.9 3.2-12.8 9.1-3.9 4.1-7.4 7.4-7.7 7.4-0.3 0-0.5-4.1-0.5-9v-9h-44v20h-11v-20h-44zm-2757-19h219v77h-60v308h-100v-308h-59zm1364-7.8c6.9-0.1 16.3 0.3 21 0.8 4.7 0.6 13 2.2 18.5 3.5 5.5 1.3 13.4 3.8 17.5 5.5 4.1 1.7 10.7 5 14.5 7.2 3.8 2.3 10.5 7.6 14.9 11.8 4.4 4.2 10.4 11.4 13.8 16.5 3.2 4.9 7.2 12.4 8.7 16.5 1.6 4.1 3.6 10.9 4.5 15 0.8 4.1 1.9 14.2 2.5 22.5 0.6 8.2 1.3 37.9 1.7 66 0.3 29.4 0.1 69.9-0.5 95.5-0.6 24.5-1.6 48.3-2.1 53-0.6 4.7-1.9 11.8-3 15.7-1.1 4-3.4 10.3-5.1 14-1.7 3.8-4.9 9.5-7.1 12.8-2.2 3.3-7 9.1-10.7 12.8-3.6 3.8-10 9.2-14.1 12-4.1 2.8-11.4 6.8-16.3 8.9-4.8 2.1-12.9 4.9-17.9 6.2-5.1 1.3-14.5 3-20.8 3.6-7.1 0.8-16.8 1.1-25.5 0.7-7.7-0.3-17.8-1.3-22.5-2.2-4.7-0.9-12.1-2.8-16.5-4.2-4.4-1.4-12.3-4.7-17.5-7.4-5.2-2.6-12.5-7.3-16.3-10.4-3.7-3-9.1-8.4-11.9-11.9-2.9-3.5-7-9.2-9.1-12.7-2-3.5-5.1-9.9-6.7-14.2-1.7-4.2-3.7-11.6-4.5-16.5-0.8-4.8-2-17.9-2.6-29.2-0.7-13.1-0.9-51.5-0.6-106 0.3-55.8 0.8-89 1.6-95.5 0.6-5.5 2.1-13.6 3.1-18 1.1-4.4 4-12.1 6.4-17 2.4-4.9 6.6-11.9 9.4-15.5 2.7-3.6 7.5-8.9 10.8-11.9 3.2-3 7.7-6.6 9.9-8.1 2.2-1.5 7.6-4.6 12-6.8 4.4-2.1 11.6-5.1 16-6.5 4.4-1.5 11.8-3.3 16.5-4.1 4.7-0.9 10.1-1.7 12-1.9 1.9-0.2 9.1-0.5 16-0.5zm-8.3 69.6c-1.7 1.7-3.2 4.6-4 8.2-0.9 4.2-1.2 33.1-1.2 123 0 90.3 0.3 118.8 1.2 123.3 1 4.2 2.1 6.3 4.3 8.2 1.7 1.4 4.7 2.8 6.7 3.1 2.3 0.4 5.3 0.1 7.7-0.7 2.2-0.8 4.8-2.5 5.8-3.9 1-1.4 2.4-4.3 3-6.5 0.9-2.9 1.3-35.9 1.5-120.5 0.3-77.1 0-118.8-0.7-123.3-0.5-3.7-1.6-7.9-2.4-9.5-0.7-1.5-3-3.5-5-4.5-2-0.9-4.8-1.7-6.4-1.6-1.5 0-3.8 0.5-5.2 1-1.4 0.6-3.7 2.2-5.3 3.7zm507.8-69.6c7.2-0.1 17.7 0.5 23.5 1.3 5.8 0.8 14.1 2.4 18.5 3.5 4.4 1.2 11.2 3.5 15 5.1 3.8 1.6 9.9 4.7 13.5 6.8 3.6 2.2 9 6.1 12 8.6 3 2.6 7.8 7.5 10.7 10.9 2.9 3.3 7.2 9.5 9.5 13.6 2.4 4.1 5.6 11.1 7.1 15.5 1.6 4.4 3.5 12.3 4.2 17.5 0.8 5.2 1.9 21.9 2.5 37 0.5 15.1 1 51.4 1 80.5 0 29.1-0.5 64.7-1 79-0.5 14.3-1.4 30.3-2 35.5-0.7 5.2-2.3 13.1-3.7 17.5-1.4 4.4-4.2 11.4-6.4 15.5-2.1 4.1-6.5 10.9-9.8 15-3.3 4.1-9.5 10.3-13.8 13.8-4.3 3.4-12.3 8.5-17.8 11.2-5.5 2.7-14 6.1-19 7.5-5 1.4-14.1 3.2-20.3 4-6.1 0.8-16.3 1.5-22.5 1.5-6.1 0-15.9-0.7-21.7-1.5-5.8-0.8-14.1-2.3-18.5-3.5-4.4-1.1-11.6-3.6-16-5.5-4.4-2-10.4-5-13.3-6.8-3-1.7-8.2-5.5-11.5-8.3-3.4-2.7-8.5-7.9-11.3-11.5-2.9-3.5-7-9.5-9.2-13.4-2.3-3.9-5.4-11.1-7.1-16-1.6-4.9-3.5-12.6-4-17-0.6-4.4-1.6-17-2.1-28-0.5-11-1-51.1-1-89 0-37.9 0.5-78 1-89 0.5-11 1.5-23.6 2.1-28 0.6-4.4 2.5-12.3 4.2-17.5 1.7-5.2 5.4-13.2 8.2-17.8 2.7-4.5 7.5-11 10.5-14.4 3-3.4 8.4-8.4 12-11 3.6-2.7 10.3-6.9 15-9.2 4.7-2.4 12.1-5.5 16.5-6.9 4.4-1.4 11.8-3.2 16.5-4.1 4.7-0.8 10.1-1.7 12-1.9 1.9-0.2 9.3-0.4 16.5-0.5zm-9.6 70.4c-1.1 1.6-2.5 5.4-3.2 8.4-0.9 4.2-1.2 33.6-1.2 121.5 0 89.1 0.3 117.4 1.3 122 0.6 3.3 2 7.1 3 8.5 1.1 1.4 3.6 3.1 5.8 3.9 2.6 0.9 5.2 1.1 7.9 0.6 2.2-0.4 5.2-1.9 6.6-3.4 1.5-1.4 3.3-4.6 4-7.1 1.2-3.7 1.4-25.6 1.4-126v-121.5c-3.9-8.2-5.4-9.9-8-11-1.9-0.8-4.7-1.5-6.3-1.5-1.5 0.1-4.2 0.7-6 1.4-1.8 0.8-4.2 2.7-5.3 4.2zm254.1-70.2c12.3 0.3 23 1.1 29 2.1 5.2 0.9 13.8 3.1 19 4.7 5.2 1.7 13.1 4.8 17.5 7 4.4 2.2 10.7 5.9 14 8.3 3.3 2.3 8.2 6.6 10.8 9.6 2.7 3 6.2 8.1 7.8 11.4 1.6 3.3 3.5 8.7 4.4 12 0.8 3.3 2.2 11.2 3 17.5 0.8 6.3 1.6 20.5 2 51.5h-93l-0.5-24.5c-0.5-22.3-0.7-24.8-2.5-28-1.2-1.9-3.6-4.3-5.5-5.3-2.6-1.3-4.8-1.7-8.5-1.3-2.8 0.3-6.1 1.4-7.4 2.3-1.3 1-3.2 2.9-4.2 4.3-1 1.4-2.5 5.2-3.4 8.5-0.8 3.4-1.5 10.2-1.5 15.5 0 5.2 0.7 12.6 1.5 16.5 0.8 3.8 2.5 9 3.8 11.5 1.4 2.6 5 6.8 8.9 10 3.6 3 11.4 8.4 17.3 12 5.9 3.6 19.3 12.2 29.8 19.1 10.6 6.9 23.7 16.2 29.2 20.6 5.5 4.4 13.8 12 18.5 16.9 6.4 6.7 9.5 11 12.7 17.4 2.3 4.7 5.3 12.3 6.6 17 1.4 4.7 3.3 13.9 4.3 20.5 1.4 9.3 1.8 17.6 1.8 37 0 19-0.5 27.4-1.8 35-0.9 5.5-2.8 13.4-4.2 17.5-1.4 4.1-3.8 9.5-5.2 12-1.5 2.5-5.4 7.3-8.7 10.6-3.3 3.4-9.4 8.3-13.5 11-4.1 2.6-10.7 6.2-14.5 8-3.8 1.7-10.8 4.3-15.5 5.7-4.7 1.4-12.6 3.4-17.5 4.4-6.9 1.3-14 1.7-30 1.7-16 0-23.1-0.4-30-1.7-4.9-1-12.8-2.9-17.5-4.4-4.7-1.4-11.7-4-15.5-5.8-3.8-1.8-10.4-5.6-14.5-8.3-4.1-2.8-10.3-7.9-13.7-11.4-3.4-3.5-7.8-9-9.8-12.3-2-3.3-4.6-9.4-6-13.5-1.3-4.1-3-11.6-3.9-16.5-0.8-4.9-2-14.9-2.6-22-0.5-7.1-1-21.2-1-49.5h93l0.4 32.7c0.2 22.5 0.7 34.1 1.6 36.8 0.7 2.2 2.7 5.4 4.4 7.1 2.1 2.2 4.5 3.4 7.6 3.9 2.7 0.4 6.3 0.2 9-0.5 2.7-0.8 5.8-2.6 7.7-4.6 2-2 4-5.7 5-9.2 1.4-4.4 1.7-9 1.6-20.2-0.1-8.5-0.8-17.8-1.7-22.5-0.9-4.4-2.7-10.3-4-13-1.5-2.9-4.7-6.9-7.8-9.6-2.9-2.5-9.6-7.7-14.8-11.6-5.2-3.8-17.8-12.5-28-19.3-10.2-6.8-23.4-15.9-29.5-20.3-6-4.4-13.9-10.5-17.4-13.6-3.5-3.1-8.3-8.3-10.7-11.6-2.3-3.3-6.3-10.3-8.7-15.5-2.5-5.2-5.4-13.3-6.6-18-1.1-4.7-2.5-13.2-3.2-19-0.7-6.6-1-17-0.6-28 0.4-9.6 1.3-21.7 2.2-26.8 0.8-5 2.6-12.7 4-17 1.3-4.2 4.1-10.6 6.2-14.1 2.2-3.6 7.3-9.7 11.8-14 6.5-6.1 10.3-8.7 19.5-13.4 6.3-3.1 15.6-6.8 20.5-8.2 4.9-1.4 13.5-3.2 19-4 6.9-1 16-1.3 29.5-1.1zm237 0.1c12.3 0.2 22.8 0.9 28.5 1.9 4.9 0.9 12.4 2.6 16.5 3.8 4.1 1.1 10.9 3.5 15 5.3 4.1 1.7 11.1 5.5 15.5 8.3 4.4 2.8 10.5 7.7 13.6 10.9 3.1 3.2 7 8.5 8.7 11.8 1.6 3.3 3.9 9.6 5 14 1.1 4.4 2.6 12.3 3.2 17.5 0.7 5.2 1.3 18.7 1.5 50.5l-92.5 0.5v-16.8c0-9.2-0.5-20.5-1-25.2-0.6-4.7-1.6-9.6-2.3-10.9-0.6-1.3-2.3-3.3-3.7-4.3-1.4-1.1-4.5-2.1-7-2.4-3.4-0.4-5.5 0-9 1.8-2.6 1.4-5.3 3.7-6.4 5.8-1.1 1.9-2.6 6-3.3 9-0.7 3-1.3 9.1-1.2 13.5 0 4.4 0.6 11.4 1.3 15.5 0.7 4.1 2.3 9.4 3.5 11.7 1.1 2.4 4.2 6.4 6.8 8.9 2.7 2.6 9.4 7.7 15 11.3 5.6 3.6 16.7 10.6 24.5 15.4 7.9 4.8 20 12.9 27 18 6.9 5.1 16.3 12.3 20.8 16.2 4.4 3.9 10.6 9.9 13.6 13.5 3 3.6 7.5 10.5 9.9 15.5 2.4 4.9 5.5 13.3 6.9 18.5 1.3 5.2 3 13.8 3.7 19 0.9 6.2 1.4 18.8 1.4 36-0.1 20.3-0.5 28.6-1.8 35.5-0.9 4.9-2.5 11.9-3.6 15.5-1.1 3.6-3.6 9.2-5.6 12.5-2 3.3-5.7 8.2-8.3 10.8-2.6 2.6-7.9 7-11.7 9.6-3.8 2.7-9.9 6.3-13.5 8.1-3.6 1.8-11 4.7-16.5 6.6-5.5 1.8-14.1 4-19 4.9-4.9 0.9-15.5 1.9-23.5 2.2-8.9 0.4-18.9 0.1-26-0.7-6.3-0.6-16.4-2.4-22.5-3.9-6.1-1.6-15.3-4.8-20.5-7.3-5.2-2.4-12-6-15-7.9-3-2-8.6-6.4-12.3-10-3.8-3.5-8.7-9.2-10.8-12.7-2.1-3.4-5.2-10.1-6.9-15-1.6-4.8-3.6-13-4.4-18.2-0.9-5.2-2-16-2.6-24-0.5-8-1-21.6-1-46h92.5l0.7 31.7c0.4 23.7 1 33.2 2.1 37.3 1 3.6 2.6 6.4 4.6 8.2q3.1 2.8 7.8 3.4c2.7 0.4 6.5 0.1 8.5-0.5 2.1-0.6 5.2-2.3 6.9-3.9 1.7-1.5 4-5.2 5.2-8.2 1.9-4.9 2.2-7.3 2.1-22-0.1-10.6-0.7-19-1.6-23.5-0.9-3.9-2.7-9.3-4-12-1.5-3-4.9-7-8.4-10-3.3-2.8-7.7-6.5-9.9-8.2-2.2-1.7-15.5-10.8-29.5-20.3-14-9.5-28.9-19.8-33-22.8-4.1-3-10.4-7.8-13.9-10.6-3.5-2.8-8.8-8.2-11.8-12.1-3-3.9-7.5-11.1-9.9-16-2.4-5-5.5-13.3-6.8-18.5-1.4-5.2-3-15.6-3.6-23-0.8-8.1-1-18.9-0.6-27 0.4-7.4 1.2-16.9 1.7-21 0.6-4.1 1.9-11.1 3.1-15.5 1.1-4.4 3.2-10.5 4.7-13.5 1.5-3 4.1-7.5 5.8-10 1.7-2.5 5.5-6.8 8.4-9.5 3-2.8 7.4-6.5 9.9-8.2 2.5-1.7 7.3-4.4 10.7-6.2 3.5-1.7 10.2-4.4 15-6 4.9-1.7 13.1-3.7 18.3-4.5 5.2-0.9 10.8-1.8 12.5-2 1.7-0.2 11.8-0.3 22.5-0.1zm-2118 7.5h100v138h30v-138h100v385h-100v-162h-30v162h-100zm256 0h167v77h-67v73h62v73h-62v85h73v77h-173zm187 0h51.2c28.2 0 60.3 0.5 71.3 1 11 0.6 25.6 1.7 32.5 2.6 6.9 0.9 15.2 2.5 18.5 3.6 3.3 1.1 8.7 3.4 11.9 5.1 3.3 1.8 8.8 5.9 12.4 9.2 3.6 3.3 8.7 9.4 11.3 13.5 2.9 4.4 6.1 11.2 7.8 16.5 1.6 4.9 3.7 13.1 4.6 18 0.9 5.1 1.9 17.5 2.2 28.5 0.4 12.6 0.1 23.8-0.7 31.5-0.6 6.6-2 15.1-3 19-1 3.9-2.9 9.2-4.3 12-1.4 2.7-4.5 6.9-6.9 9.1-2.3 2.3-6.7 5.4-9.6 6.8-2.8 1.4-8.5 3.5-12.5 4.6-3.9 1.1-8.4 2-10 2-1.5 0-2.9 0.4-3.2 1-0.3 0.6 2.5 2 6.2 3.1 3.8 1.2 9.5 3.4 12.8 5 3.3 1.5 8.1 4.4 10.7 6.3 2.7 2 7.1 6.9 9.8 10.8 2.8 4 6 9.7 7 12.5 1.2 3.1 2.4 10.1 3 17 0.5 6.5 1 42.1 1 146.3h-93l-0.3-76.8c-0.3-69.7-0.5-77.2-2.1-82.7-0.9-3.3-2.7-7-3.9-8.3-1.2-1.3-4.5-2.9-7.2-3.7-2.8-0.7-7.6-1.5-16.5-2v173.5l-100.5-0.5zm101 151.5c12-1 17.5-2.1 20-3.2 3.2-1.3 5-3 6.2-5.4 0.9-1.9 2.1-6.3 2.7-9.9 0.6-3.6 1.1-15.2 1.1-25.8 0-10.5-0.4-21.3-1-24-0.5-2.6-2-6.3-3.2-8.2-1.3-1.9-4.3-4.5-6.8-5.7-2.6-1.3-7.5-2.5-11.6-2.9l-7.1-0.7zm147-151.5h130l1 6.3c0.5 3.4 6.2 42.4 12.5 86.7 6.4 44.3 11.8 80.7 12 81 0.3 0.3 0.7 0.3 0.9 0 0.2-0.3 5.1-38.5 11-85 5.9-46.5 10.9-85.5 11.6-89h130v385h-87v-36.7c0-20.2-0.3-76.2-0.7-124.5-0.4-48.2-0.9-87.5-1-87.5-0.1 0.1-7.6 55.7-16.7 123.5-9.1 67.8-16.6 123.7-16.6 124.2 0 0.7-11 1-31 1-23.9 0-31.1-0.3-31.4-1.2-0.3-0.7-8.1-54.6-17.5-119.8-9.4-65.2-17.5-120.1-18-122-0.5-2.1-0.9 46-1.1 243h-88zm586 0h50.3c27.6 0 59.9 0.5 71.7 1.1 11.9 0.5 26.6 1.6 32.8 2.5 6.2 0.8 14.7 2.5 19 3.9 4.2 1.3 10.7 4.3 14.2 6.6 3.6 2.3 9.2 7 12.5 10.4 3.3 3.4 7.6 8.9 9.5 12.1 1.9 3.3 4.6 8.8 5.9 12.4 1.3 3.6 3.2 10.3 4.2 15 1 4.7 2.4 15.9 3.1 25 1 13 1 20.1 0 33-0.7 9.1-1.8 19.4-2.6 23-0.8 3.6-2.3 9-3.4 12-1.2 3.2-4 7.7-6.9 10.9-3.2 3.6-7 6.4-11.8 8.7-3.8 1.9-11.2 4.4-16.5 5.5-5.2 1-9.7 2.1-10 2.4-0.2 0.2 2.2 1.1 5.5 2 3.3 0.9 10.1 3.6 15 6 7.1 3.3 10.3 5.7 15.1 10.6 3.6 3.8 7.5 9.5 9.8 13.9 2 4.1 4.2 10.2 4.7 13.5 0.6 3.5 1.2 36.5 1.9 154.5h-93l-0.3-75.7c-0.3-54.8-0.8-77.3-1.6-81.3-0.7-3-1.9-6.7-2.7-8.2-0.7-1.5-3.3-3.7-5.6-4.9-2.5-1.2-7.5-2.4-11.8-2.9-4.1-0.4-7.8-0.5-8.2-0.3-0.4 0.2-0.8 39.2-0.8 173.3h-100zm100 151c8.6 0 13.4-0.5 16.3-1.1 3.5-0.8 6.3-2.2 8.4-4.3 2.2-2.2 3.5-4.8 4.4-9.1 1-4.1 1.4-13.3 1.4-29 0-19-0.3-23.9-1.7-28-0.9-2.7-3-6.2-4.7-7.7-1.7-1.5-4.8-3.3-6.8-3.8-2.1-0.6-6.7-1.3-10.4-1.7l-6.5-0.6zm874-151h100v385h-100z"/>
</svg>